<?xml version="1.0" encoding="utf-8"?>
<!-- Generator: Adobe Illustrator 16.0.0, SVG Export Plug-In . SVG Version: 6.00 Build 0)  -->
<!DOCTYPE svg PUBLIC "-//W3C//DTD SVG 1.1//EN" "http://www.w3.org/Graphics/SVG/1.1/DTD/svg11.dtd">
<svg version="1.1" xmlns="http://www.w3.org/2000/svg" xmlns:xlink="http://www.w3.org/1999/xlink" x="0px" y="0px" width="1000px"
	 height="500px" viewBox="0 0 1000 500" enable-background="new 0 0 1000 500" xml:space="preserve">
<g id="Layer_2" display="none">
	<rect x="-108" y="-21" display="inline" fill="#15262E" width="1195" height="578"/>
</g>
<g id="Layer_1">
	<path fill="#1B454D" d="M0,288c173,141.667,174-22,337,82s279,25,318,0s21.991-54.638,175.399-69.809
		C891.613,294.138,960.001,268,1000,165c32.348-83.298,66,368,66,368l-1103-7C-37,526-46.587,249.85,0,288z"/>
</g>
<g id="Layer_3">
	<path fill="#1B6365" d="M0,401c0,0,62,57,197,48s201,18,235,24s141,17,197-7s108-50,213-46s138,31,166,49s39,59,39,59l-1085,5
		L0,401z"/>
</g>
</svg>
