<?xml version="1.0" standalone="no"?>
<!DOCTYPE svg PUBLIC "-//W3C//DTD SVG 20010904//EN"
 "http://www.w3.org/TR/2001/REC-SVG-20010904/DTD/svg10.dtd">
<svg version="1.0" xmlns="http://www.w3.org/2000/svg"
 width="1068.000000pt" height="1068.000000pt" viewBox="0 0 1068.000000 1068.000000"
 preserveAspectRatio="xMidYMid meet">
<metadata>
Created by potrace 1.11, written by Peter Selinger 2001-2013
</metadata>
<g transform="translate(0.000000,1068.000000) scale(0.100000,-0.100000)"
fill="#000000" stroke="none">
<path d="M0 5340 l0 -5340 5340 0 5340 0 0 5340 0 5340 -5340 0 -5340 0 0
-5340z m8136 2043 c23 -12 58 -41 78 -64 71 -84 67 54 64 -1844 l-3 -1710 -22
-40 c-28 -53 -78 -99 -133 -124 -41 -19 -65 -21 -277 -21 -180 0 -233 -3 -233
-12 0 -38 43 -270 69 -369 44 -170 85 -278 167 -441 l74 -148 -211 0 c-232 0
-361 14 -518 56 -433 117 -793 410 -1001 816 l-51 98 -1803 0 c-2035 0 -1860
-7 -1947 80 -83 83 -79 37 -77 939 l3 794 330 -496 c182 -273 333 -497 336
-497 4 0 55 119 115 265 60 146 112 265 115 265 3 0 154 -111 336 -248 l330
-248 454 28 c250 15 475 28 501 30 l47 3 326 324 c178 179 324 325 322 326 -1
2 -303 -17 -672 -40 l-670 -42 -484 269 c-265 147 -486 266 -490 264 -3 -2
-62 -81 -131 -175 -117 -160 -126 -169 -141 -153 -9 9 -155 203 -323 431
l-306 414 0 542 0 542 31 63 c34 67 89 115 157 137 28 9 709 11 2817 10 l2780
-2 41 -22z"/>
<path d="M5728 6530 c-347 -359 -328 -328 -284 -452 34 -98 71 -154 145 -228
110 -109 233 -160 386 -160 151 0 279 53 385 159 114 115 173 258 173 416 0
165 -58 309 -169 419 -83 83 -176 132 -304 159 -22 5 -60 -31 -332 -313z"/>
</g>
</svg>
